<svg preserveAspectRatio="none" overflow="visible" style="display: block;" width="20" height="20" viewBox="0 0 20 20" fill="none" xmlns="http://www.w3.org/2000/svg">
<g id="Trending_UP">
<path id="Icon" fill-rule="evenodd" clip-rule="evenodd" d="M12.955 6.56667L13.915 7.52667L10.6617 10.78L8.46833 8.58667C8.34378 8.46183 8.17468 8.39168 7.99833 8.39168C7.82199 8.39168 7.65289 8.46183 7.52833 8.58667L3.52833 12.5933C3.26833 12.8533 3.26833 13.2733 3.52833 13.5333C3.78833 13.7933 4.20833 13.7933 4.46833 13.5333L7.995 10L10.1883 12.1933C10.4483 12.4533 10.8683 12.4533 11.1283 12.1933L14.855 8.47333L15.815 9.43333C16.0217 9.64 16.3817 9.49333 16.3817 9.2V6.33333C16.3883 6.14667 16.2417 6 16.055 6H13.195C12.895 6 12.7483 6.36 12.955 6.56667V6.56667Z" fill="#679F35"/>
</g>
</svg>
